<svg width="20" height="21" viewBox="0 0 20 21" fill="none" xmlns="http://www.w3.org/2000/svg">
<path d="M8.22093 1.00336C8.49451 0.264016 9.54022 0.264017 9.81381 1.00336L11.7489 6.23293C11.8349 6.46538 12.0182 6.64865 12.2507 6.73466L17.4802 8.66978C18.2196 8.94336 18.2196 9.98908 17.4802 10.2627L12.2507 12.1978C12.0182 12.2838 11.8349 12.4671 11.7489 12.6995L9.8138 17.9291C9.54022 18.6684 8.49451 18.6684 8.22093 17.9291L6.28581 12.6995C6.1998 12.4671 6.01653 12.2838 5.78408 12.1978L0.554507 10.2627C-0.184836 9.98907 -0.184835 8.94336 0.554508 8.66978L5.78408 6.73466C6.01653 6.64865 6.1998 6.46538 6.28581 6.23293L8.22093 1.00336Z" fill="#9C9C9C"/>
<path d="M16.9942 2.38488C17.0619 2.20211 17.3204 2.20211 17.388 2.38488L17.8664 3.67769C17.8876 3.73515 17.9329 3.78046 17.9904 3.80172L19.2832 4.28011C19.466 4.34774 19.466 4.60625 19.2832 4.67388L17.9904 5.15227C17.9329 5.17353 17.8876 5.21884 17.8664 5.2763L17.388 6.56911C17.3204 6.75188 17.0619 6.75188 16.9942 6.56911L16.5158 5.2763C16.4946 5.21884 16.4493 5.17353 16.3918 5.15227L15.099 4.67388C14.9162 4.60625 14.9162 4.34774 15.099 4.28011L16.3918 3.80172C16.4493 3.78046 16.4946 3.73515 16.5158 3.67769L16.9942 2.38488Z" fill="#9C9C9C"/>
<path d="M12.998 0.23597C13.0527 0.08801 13.262 0.0880102 13.3168 0.23597L13.704 1.28253C13.7212 1.32905 13.7579 1.36572 13.8044 1.38294L14.851 1.7702C14.9989 1.82495 14.9989 2.03422 14.851 2.08897L13.8044 2.47623C13.7579 2.49345 13.7212 2.53012 13.704 2.57664L13.3168 3.6232C13.262 3.77116 13.0527 3.77116 12.998 3.6232L12.6107 2.57664C12.5935 2.53012 12.5568 2.49345 12.5103 2.47623L11.4638 2.08897C11.3158 2.03422 11.3158 1.82495 11.4638 1.7702L12.5103 1.38294C12.5568 1.36572 12.5935 1.32905 12.6107 1.28253L12.998 0.23597Z" fill="#9C9C9C"/>
</svg>
