<svg width="49" height="49" viewBox="0 0 49 49" fill="none" xmlns="http://www.w3.org/2000/svg">
<circle cx="24.5" cy="24.5" r="24.5" fill="#FD6260"/>
<path d="M31.3506 24.5651L25.5712 22.4296L23.4423 16.646C22.968 15.3574 21.2765 15.0655 20.3977 16.1206C20.2673 16.2771 20.1647 16.4548 20.0943 16.646L17.952 22.4296L12.1681 24.5583C10.8795 25.0327 10.5876 26.724 11.6427 27.6028C11.7992 27.7332 11.9769 27.8358 12.1681 27.9061L17.952 30.0484L20.0809 35.8319C20.5552 37.1205 22.2467 37.4124 23.1255 36.3573C23.2559 36.2008 23.3585 36.0231 23.4289 35.8319L25.5712 30.0484L31.3551 27.9196C32.6437 27.4453 32.9356 25.7539 31.8805 24.8751C31.724 24.7448 31.5463 24.6422 31.3551 24.5718L31.3506 24.5651ZM24.5628 28.5044C24.3165 28.5952 24.1224 28.7893 24.0317 29.0355L21.7616 35.1855L19.496 29.04C19.4054 28.7911 19.2093 28.5951 18.9604 28.5044L12.8146 26.239L18.9604 23.9735C19.2093 23.8829 19.4054 23.6868 19.496 23.4379L21.7616 17.2925L24.0272 23.4379C24.1179 23.6842 24.312 23.8783 24.5583 23.969L30.7086 26.239L24.5628 28.5044ZM25.3471 14.5867C25.3471 14.0916 25.7484 13.6903 26.2435 13.6903H28.0362V11.8977C28.0362 11.2077 28.7832 10.7764 29.3808 11.1214C29.6581 11.2815 29.829 11.5774 29.829 11.8977V13.6903H31.6217C32.3118 13.6903 32.743 14.4373 32.398 15.0348C32.2379 15.3121 31.942 15.483 31.6217 15.483H29.829V17.2757C29.829 17.9656 29.082 18.3969 28.4844 18.0519C28.2071 17.8918 28.0362 17.5959 28.0362 17.2757V15.483H26.2435C25.7484 15.483 25.3471 15.0817 25.3471 14.5867ZM37 19.9646C37 20.4597 36.5987 20.861 36.1036 20.861H35.2072V21.7573C35.2072 22.4473 34.4603 22.8786 33.8627 22.5336C33.5853 22.3734 33.4145 22.0775 33.4145 21.7573V20.861H32.5181C31.8281 20.861 31.3968 20.1141 31.7418 19.5165C31.9019 19.2392 32.1979 19.0683 32.5181 19.0683H33.4145V18.172C33.4145 17.482 34.1615 17.0507 34.7591 17.3957C35.0364 17.5559 35.2072 17.8518 35.2072 18.172V19.0683H36.1036C36.5987 19.0683 37 19.4696 37 19.9646Z" fill="white"/>
</svg>
