<svg width="20" height="21" viewBox="0 0 20 21" fill="none" xmlns="http://www.w3.org/2000/svg">
<path d="M19 19.5002L14.657 15.1572M14.657 15.1572C15.3999 14.4143 15.9892 13.5324 16.3912 12.5618C16.7933 11.5911 17.0002 10.5508 17.0002 9.50021C17.0002 8.4496 16.7933 7.40929 16.3912 6.43866C15.9892 5.46803 15.3999 4.58609 14.657 3.84321C13.9141 3.10032 13.0322 2.51103 12.0615 2.10898C11.0909 1.70693 10.0506 1.5 8.99999 1.5C7.94939 1.5 6.90908 1.70693 5.93845 2.10898C4.96782 2.51103 4.08588 3.10032 3.34299 3.84321C1.84266 5.34354 0.999786 7.37842 0.999786 9.50021C0.999786 11.622 1.84266 13.6569 3.34299 15.1572C4.84332 16.6575 6.87821 17.5004 8.99999 17.5004C11.1218 17.5004 13.1567 16.6575 14.657 15.1572Z" stroke="#A2A2A2" stroke-width="1.5" stroke-linecap="round" stroke-linejoin="round"/>
</svg>
