<svg width="148" height="27" viewBox="0 0 148 27" fill="none" xmlns="http://www.w3.org/2000/svg">
<path d="M14 0L17.0309 9.32827H26.8393L18.9042 15.0935L21.9351 24.4217L14 18.6565L6.0649 24.4217L9.09584 15.0935L1.16074 9.32827H10.9691L14 0Z" fill="#0C4C6B"/>
<path d="M44 0L47.0309 9.32827H56.8393L48.9042 15.0935L51.9351 24.4217L44 18.6565L36.0649 24.4217L39.0958 15.0935L31.1607 9.32827H40.9691L44 0Z" fill="#0C4C6B"/>
<path d="M74 0L77.0309 9.32827H86.8393L78.9042 15.0935L81.9351 24.4217L74 18.6565L66.0649 24.4217L69.0958 15.0935L61.1607 9.32827H70.9691L74 0Z" fill="#0C4C6B"/>
<path d="M104 0L107.031 9.32827H116.839L108.904 15.0935L111.935 24.4217L104 18.6565L96.0649 24.4217L99.0958 15.0935L91.1607 9.32827H100.969L104 0Z" fill="#0C4C6B"/>
<path d="M134 0L137.031 9.32827H146.839L138.904 15.0935L141.935 24.4217L134 18.6565L126.065 24.4217L129.096 15.0935L121.161 9.32827H130.969L134 0Z" fill="#0C4C6B"/>
</svg>
